<svg width="182.2pt" height="87.92pt" viewBox="0 0 182.2 87.92" xmlns="http://www.w3.org/2000/svg"><defs><clipPath id="d"><path d="m20 64h30v20h-30z"/></clipPath><clipPath id="c"><path d="m20.75 64.8c-0.6445 0.3242-1.125 1.207-0.08203 0.8047 0.9648-0.4023 1.93-0.5625 2.895-0.5625 5.297 0 12.26 6.727 12.67 11.9-0.9023 0.7656-1.621 1.379-2.066 1.762-0.8047 0.7227-2.812 2.246-2.41 3.531 0.1562 0.6445 1.043 1.047 1.605 0.9648 1.285-0.1602 2.25-0.8008 3.133-1.684 1.527-1.527 2.328-3.457 2.328-5.387 0-0.08594 0-0.1719-0.003906-0.2578 3.562-3.113 8.012-6.613 10.77-8.418l-0.3203-0.6445c-3.102 1.969-7.285 5.324-10.54 8.035-0.9453-6.188-8.555-10.77-14.12-10.77-1.289 0-2.652 0.2422-3.855 0.7227m13.18 15.83c0.5156-0.6328 1.301-1.441 2.258-2.359-0.1133 0.6445-0.3633 1.262-0.8125 1.875-0.6445 0.8867-1.527 1.527-2.168 1.77-0.02734 0.01172-0.04688 0.01563-0.0625 0.01563-0.2344 0 0.5586-1.074 0.7852-1.301"/></clipPath><clipPath id="b"><path d="m20.75 64.8c-0.6445 0.3242-1.125 1.207-0.08203 0.8047 0.9648-0.4023 1.93-0.5625 2.895-0.5625 5.297 0 12.26 6.727 12.67 11.9-0.9023 0.7656-1.621 1.379-2.066 1.762-0.8047 0.7227-2.812 2.246-2.41 3.531 0.1562 0.6445 1.043 1.047 1.605 0.9648 1.285-0.1602 2.25-0.8008 3.133-1.684 1.527-1.527 2.328-3.457 2.328-5.387 0-0.08594 0-0.1719-0.003906-0.2578 3.562-3.113 8.012-6.613 10.77-8.418l-0.3203-0.6445c-3.102 1.969-7.285 5.324-10.54 8.035-0.9453-6.188-8.555-10.77-14.12-10.77-1.289 0-2.652 0.2422-3.855 0.7227m13.18 15.83c0.5156-0.6328 1.301-1.441 2.258-2.359-0.1133 0.6445-0.3633 1.262-0.8125 1.875-0.6445 0.8867-1.527 1.527-2.168 1.77-0.02734 0.01172-0.04688 0.01563-0.0625 0.01563-0.2344 0 0.5586-1.074 0.7852-1.301"/></clipPath><linearGradient id="a" x1="-.01474" x2="1" gradientTransform="matrix(29.53 0 0 29.53 20.06 73.64)" gradientUnits="userSpaceOnUse"><stop stop-color="#50ade4" offset="0"/><stop stop-color="#50ade4" offset=".5"/><stop stop-color="#50ade4" offset=".625"/><stop stop-color="#50ace4" offset=".6289"/><stop stop-color="#4fabe3" offset=".6328"/><stop stop-color="#4fa9e3" offset=".6367"/><stop stop-color="#4ea8e2" offset=".6406"/><stop stop-color="#4ea7e1" offset=".6445"/><stop stop-color="#4da6e1" offset=".6484"/><stop stop-color="#4da4e0" offset=".6523"/><stop stop-color="#4ca3df" offset=".6562"/><stop stop-color="#4ca2de" offset=".6602"/><stop stop-color="#4ba1de" offset=".6641"/><stop stop-color="#4ba0dd" offset=".668"/><stop stop-color="#4a9edc" offset=".6719"/><stop stop-color="#4a9ddc" offset=".6758"/><stop stop-color="#499cdb" offset=".6797"/><stop stop-color="#499bda" offset=".6836"/><stop stop-color="#489ada" offset=".6875"/><stop stop-color="#4898d9" offset=".6914"/><stop stop-color="#4797d8" offset=".6953"/><stop stop-color="#4796d8" offset=".6992"/><stop stop-color="#4695d7" offset=".7031"/><stop stop-color="#4694d6" offset=".707"/><stop stop-color="#4593d6" offset=".7109"/><stop stop-color="#4592d5" offset=".7148"/><stop stop-color="#4490d4" offset=".7188"/><stop stop-color="#448fd4" offset=".7227"/><stop stop-color="#438ed3" offset=".7266"/><stop stop-color="#438dd2" offset=".7305"/><stop stop-color="#438cd2" offset=".7344"/><stop stop-color="#428bd1" offset=".7383"/><stop stop-color="#428ad0" offset=".7422"/><stop stop-color="#4189d0" offset=".7461"/><stop stop-color="#4187cf" offset=".75"/><stop stop-color="#4086ce" offset=".7539"/><stop stop-color="#4085ce" offset=".7578"/><stop stop-color="#3f84cd" offset=".7617"/><stop stop-color="#3f83cc" offset=".7656"/><stop stop-color="#3f82cc" offset=".7695"/><stop stop-color="#3e81cb" offset=".7734"/><stop stop-color="#3e80ca" offset=".7773"/><stop stop-color="#3d7fca" offset=".7812"/><stop stop-color="#3d7ec9" offset=".7852"/><stop stop-color="#3d7dc8" offset=".7891"/><stop stop-color="#3c7cc8" offset=".793"/><stop stop-color="#3c7bc7" offset=".7969"/><stop stop-color="#3b7ac6" offset=".8008"/><stop stop-color="#3b79c6" offset=".8047"/><stop stop-color="#3a77c5" offset=".8086"/><stop stop-color="#3a76c4" offset=".8125"/><stop stop-color="#3a75c4" offset=".8164"/><stop stop-color="#3974c3" offset=".8203"/><stop stop-color="#3973c2" offset=".8242"/><stop stop-color="#3872c2" offset=".8281"/><stop stop-color="#3872c1" offset=".832"/><stop stop-color="#3871c1" offset=".8359"/><stop stop-color="#3871c1" offset=".8438"/><stop stop-color="#3871c1" offset=".875"/><stop stop-color="#3871c1" offset="1"/></linearGradient></defs><path d="m59.04 35.31c-1.688-0.08203-2.574-2.973-3.137-4.34-0.8008-2.086-1.926-8.836-2.086-9.879-0.08203-0.3242-0.08203-0.7266-0.08203-1.047 0-0.08203 0-0.08203 0.08203-0.08203 2.008 0 3.375 2.41 3.375 4.18 0 4.016-4.258 8.113-7.074 10.52-0.3203 0.2422-0.4766 0.4023-0.6406 0.4023-0.3203 0-0.4023-0.4023-0.4023-0.8828 0-0.5625 0.1641-1.367 0.2422-1.688v-0.1602c0.3242-1.688 0.8867-3.617 0.8867-5.383 0-0.6445-0.08594-1.125-0.2461-1.77-0.5586-2.246-2.164-2.973-4.016-2.973-1.363 0-2.812 0.3242-4.016 0.8828-2.73 1.125-5.305 2.816-7.473 4.82-4.418 3.938-7.633 10.37-7.633 16.47 0 8.438 6.988 15.75 15.27 15.75 6.828 0 11.09-5.219 12.29-11.09-0.08203 0.3203-0.9648 0.7227-1.043 1.285-0.9688 4.984-4.82 8.758-9.562 8.758-8.598 0-15.02-6.668-15.02-15.34 0-1.367 0.1602-2.734 0.4023-4.02 0.7227-4.5 3.051-8.516 6.023-11.73 1.93-2.086 5.305-4.82 8.516-4.82 0.6445 0 1.285 0.08203 1.93 0.3242 2.008 0.9609 2.652 2.566 2.652 4.496 0 2.492-0.9648 5.305-1.047 7.312 0 0.6406 0.1602 0.8828 0.5664 0.8828 1.445 0 4.738-3.051 5.141-3.375 2.73-2.57 6.105-6.184 6.105-10.12 0-1.77-2.012-3.859-4.02-3.859-1.363 0-2.973 0.9688-3.133 2.172v0.4023c0 2.488 1.77 9.879 2.492 11.65 0.5625 1.203 1.445 3.215 2.973 3.375 0.4805 0 1.527-1.125 1.688-1.125" fill="#b1e5fa"/><path d="m60.73 55.64c-0.1602-0.4023-0.4805-0.5625-0.8047-0.5625h-0.2383l0.9609-0.8867c0-1.125 0.08203-4.82-1.527-5.141-0.7227 0-1.688 0.5625-2.086 1.043-0.2422 0.2422-0.7227 0.7227-0.5625 1.609 0.1602 0.3984 0.8008 2.488 0.8008 3.535-0.07813 0.08203-0.1602 0.08203-0.3203 0.08203-0.4023 0-1.285-0.5625-1.445-0.5625-0.4805 0-0.5625 0.2383-0.8047 0.5625l-1.043 1.121c0.9648 0.4023 3.113 0.4688 4.398 0.1445 0.2422 0.2422 0.5 0.9805 0.5 1.703 0 0.8047-0.7188 1.285-1.203 2.09-0.1602 0.2422-0.1602 0.5625-0.1602 0.8828 0 1.043 0.6445 2.41 0.6445 3.453 0 1.609-2.652 2.012-5.547 2.012-2.73 0-8.035-2.25-11.09-2.812-2.332-0.4023-6.91-0.2422-6.91-4.258 0-0.08203 0.08203-0.3203 0.08203-0.5625-0.8828 0.07812-2.172 1.367-2.172 1.848 0 4.262 3.617 4.66 8.355 5.543 3.617 0.6445 7.312 2.414 11.49 2.414 4.422 0 8.117-1.852 8.117-5.867 0-0.5625 0-1.125-0.1602-1.77-0.08203-0.4805-0.1641-0.8828-0.1641-1.285 0-0.6406 0.1641-1.285 0.6445-1.848 0.4844-0.5625 0.6445-0.8828 0.6445-1.203 0-0.4023-0.1602-0.8047-0.4023-1.285" fill="#3871c1"/><g clip-path="url(#d)"><g clip-path="url(#c)"><g clip-path="url(#b)"><path d="m19.63 64.08v19.2h29.96v-19.2z" fill="url(#a)"/></g></g></g><path d="m50.85 11.86c-0.08203 1.168 0.168 5.922-1.25 7.258 0-1.086 0.332-2.172 0.332-3.254v-0.25c0-2.668-1.164-7.094-3.754-8.262-0.08203-0.08203-1-0.08203-1.168-0.08203-0.4141 0-0.6641 0.08203-0.6641 0.418 0 5.84-0.2539 12.01-3.504 17.11-0.3359 0.6641-0.7539 1.164-1.254 1.75h-0.08203c-0.3359 0-0.668-1.168-0.75-1.672v-0.07812c-0.5039-2.09-0.418-4.258-0.5859-6.344-0.1641-2.336-0.832-6.676-1.254-8.844-0.1641-0.75-0.332-1.418-0.332-2.168 0-0.2539 0-0.5 0.08594-0.8359 0-0.332 0.1641-0.4141 0.4141-0.4141 1.836 0 2.84 3.586 2.84 5.004 0 6.172-5.926 13.35-8.176 13.35-0.168 0-0.08594-0.332-0.08594-0.5859 0-0.582 0.25-1.25 0.332-1.75v-0.08203c0.3359-2.004 0.8398-4.004 0.8398-6.008 0-3.711-2.754-4.84-5.176-4.84-15.29 0-23.56 17.61-23.56 26.95 0 10.34 6.895 16.27 14.68 18.69 0.2539 0.07813 0.5 0.1641 0.668 0.1641 0.08594 0 0.168 0 0.168-0.08203 0-0.07812-0.4258-0.1797-1.168-0.5-6.59-2.586-12.59-10.24-12.59-18.26 0-9.094 7.395-26.2 21.54-26.2 1.719 0 4.34 1.188 4.34 4.586 0 1.918-0.668 4.09-1.004 5.508-0.08203 0.5-0.332 1.336-0.332 2.086 0 0.5 0.08203 0.918 0.582 1.168 0.08594 0.08203 0.25 0.08203 0.418 0.08203 2.168 0 9.93-6.84 9.93-15.27 0-2.254-1.668-5.84-4.004-5.84-1.422 0-2.09 2.5-2.09 3.504 0 2 1.754 8.84 1.754 12.26 0 1.254-0.168 7.344 2.086 7.344h0.25c2.004-0.3359 3.336-3.508 4.09-5.09 1.582-3.254 2.25-6.926 2.25-10.51 0-1.004 0-3.34-0.08203-4.422l-1.168 0.5c2 0.832 2.918 4.336 3.336 6.34 0.08203 0.5859 0.168 1.168 0.168 1.75 0 1.086-0.168 2.172-0.3359 3.254v0.25c0 0.5039 0.418 1.004 1.086 1.09 0.25 0 0.5859 0.08203 0.7539 0.08203 1.836 0 3.418-0.8359 4.668-2.172 1.004-1 1.25-2.336 1.25-3.586 0-1.586-0.4141-3.172-1.082-4.504-0.08203-0.08594-0.168-0.25-0.75-0.25-0.75 0-2.336 1.082-2.672 1.668" fill="#50ade4"/><path d="m14.81 28.38c6.898 1.418 19.76 4.418 17.15 12.34-0.4648 1.422-8.852 1.086-10.25 1.504-1.957 0.5-3.078 1.5-3.078 2.84 0 2.25 6.992 4.668 8.387 5.086 0.5625 0.168 5.969-0.08203 3.078-1.086-2.051-0.75-4.66-1.918-7.551-3.504-1.301-0.6641-1.395-2.586 0.5625-2.668 8.758-0.5 11.93-1.25 12.3-3.59 1.301-7.34-9.602-10.93-16.87-12.59 3.824-2.34 8.945-6.512 8.945-10.26 0-4.09-5.309-7.012-8.754-8.012-0.7461-0.1641-3.266-0.668-3.543-0.582 6.148 3 9.41 5.422 9.41 9.008 0 5.426-5.125 8.344-9.598 11.01" fill="#50ade4"/><path d="m55.11 35.24-0.3789-0.1055c-1.125-0.2422-3.234-1.516-4.121-1.516-1.766 0-6.039 2.898-6.676 2.926l-0.06641 0.8945c0.9648 0.2383 6.508 1.164 6.391 3.539-0.003906 0.1602 1.477-0.4492 1.797-0.6914 0.1602-0.08203-0.4023-0.1602-0.6406-0.2383-0.8047-0.08203-2.168 0-2.973 0-0.6445 0-0.8047 0-0.8047 0.07812s0.08203 0.1602 0.3203 0.1602c0.1641 0 0.4844-0.08203 0.7266-0.1602 0.07812 0 0.1602-0.07812 0.2422-0.07812 0.5586-0.2422 1.527-0.5625 2.168-0.5625 0.5586 0 0.8828 0.2422 0.8828 0.8008 0 0.6445-0.4023 1.203-0.7227 1.688l-0.7227 0.8828c-0.3203 0.3242-1.848 1.367-2.168 1.527 1.605-0.07812 5.562-2.605 5.562-4.773 0-0.6914-0.9375-2.031-2.004-2.031-3.215 0-5.812 1.102-6.855 3.91h0.3203c0.8828-0.2383 1.609-0.3984 2.41-0.3984 0.8047 0 1.688 0.3203 2.492 0.3203h0.3203c0.8047-0.2422 2.09-0.8008 2.09-1.684 0-0.1641 0-0.3242-0.07812-0.4844-0.5664-1.043-3.836-2.227-4.961-2.707 0.4922-0.1875 1.527-0.1367 3.141 0.1406 4.793 0.8359 4.812 0.2891 6.02-0.7539 0.5625-0.5625 0.6055-0.5234 0.6055-0.8438 0-0.5625-0.2969-1.395-0.6094-1.598-0.5625 0-2.008 0.9648-2.008 1.125 0 0 0.3789 0.6328 0.3008 0.6328" fill="#2c3792"/><path d="m60.89 47.76c0.4023 0.4023 1.125 1.043 1.125 1.285 0 0.1641-0.1602 0.2422-0.4805 0.2422-0.6445 0-1.367-0.1641-2.09-0.2422-0.9648-0.07812-4.422-1.125-5.383-1.125 0-0.4023 0.07812-0.8828 0.4805-0.8828 0.2422 0 0.4805 0.08203 0.8047 0.2422 0.08203 0 0.1602 0.08203 0.1602 0.08203 0.4844 0 0.9648-0.4844 0.9648-0.8086 0-0.1602-0.08203-0.3203-0.3242-0.3984-0.5625-0.2422-0.9609-0.4023-1.445-0.4023-0.6406 0-1.363 0.4023-1.766 1.285-0.2422 0.4023-0.3203 0.8047-0.3203 1.125 0 1.047 0.8008 1.926 2.008 2.008 0.7227 0 1.445-0.08203 2.086-0.08203 0.4023 0 0.7227 0 1.129 0.08203 1.121 0.08203 2.168 0.3203 3.293 0.3203 1.363 0 2.57-0.9609 2.57-2.168 0-0.4805-0.08203-1.043-0.5625-1.609-0.1641-0.07812-0.2422-0.1602-0.4023-0.1602-0.4023 0-0.9648 0.4844-1.367 0.7266" fill="#2c3792"/><path d="m60.09 43.42c-2.008-2.41-3.051-5.539-5.383-7.551-0.07812-0.07812-0.2383-0.1602-0.4023-0.1602-0.3203 0-0.8828 0.4805-0.8828 0.8047 0 0.1562 0.07812 0.2383 0.1641 0.3203 2.246 1.93 3.371 4.98 5.141 7.312" fill="#2c3792"/><path d="m27.45 47.45c-0.4023-2.168-1.688-4.258-3.613-4.258-0.4844 0-0.8828 0.1602-1.449 0.4023-2.328 1.125-3.535 3.535-3.535 6.027 0 0.2422 0 0.6406 0.08203 0.9609 0.4805 3.215 3.051 5.867 6.023 6.828 0.8047 0.3242 1.77 0.5625 2.734 0.5625 1.125 0 2.328-0.4023 2.973-1.445v-0.1602h-0.08203c-0.2422 0-0.8828 0.1602-1.848 0.1602-0.4023 0-0.8008 0-1.285-0.07812-0.4844-0.08203-0.9609-0.3242-1.445-0.5664-2.168-0.8828-3.695-2.488-4.66-4.578-0.3984-0.8828-0.5625-1.766-0.5625-2.648 0-1.207 0.2422-2.41 0.9648-3.457 0.3203-0.5625 0.5625-0.8008 0.9609-0.8008 0.8867 0 1.77 1.285 2.09 1.848 0.4844 0.7188 0.6406 1.445 0.8047 2.328 0.3203 0 1.848-0.3203 1.848-1.043" fill="#23255d"/><path d="m85.21 33.52c-0.4492 0.04297-0.8633 0.2891-1.125 0.6367-0.5547 0.7188-1.109 2.09-3.73 8.648-0.04297 0.125-0.4531 0.125-0.4961 0-2.949-7.133-3.668-8.711-4.078-8.977-0.2227-0.1445-0.5312-0.2031-0.9844-0.3086-0.1602-0.03906-0.1211-0.2227-0.01953-0.2227 0.4922 0.03906 1.949 0.05859 2.34 0.05859 0.9805 0 2.027-0.01953 2.539-0.05859 0.08203 0 0.125 0.1836-0.01953 0.2227-0.4727 0.125-0.6953 0.08203-0.9453 0.207-0.2227 0.1211-0.2031 0.3672 0.5547 2.543 0.3711 1.062 1.148 2.867 1.559 3.73 0.01953 0.05859 0.08203 0.03906 0.1016 0 1.848-4.367 2.172-5.516 2.172-5.824 0-0.3047 0-0.5312-0.9219-0.6562-0.1641-0.01953-0.1211-0.2227-0.03906-0.2227 0.5117 0.03906 1.043 0.05859 1.457 0.05859 0.7969 0 1.168-0.01953 1.66-0.05859 0.1016-0.01953 0.1406 0.2031-0.02344 0.2227" fill="#2c3792"/><path d="m88.66 42.54c-0.9414 0-1.988 0.02344-2.457 0.0625-0.1055 0-0.125-0.1836 0.01953-0.2266 0.4062-0.1016 0.9844-0.1211 1.207-0.2656 0.1445-0.08203 0.2266-1.27 0.2266-4.117 0-2.832-0.08203-4.145-0.2266-4.227-0.2227-0.1211-0.8008-0.1406-1.207-0.2461-0.1445-0.03906-0.125-0.2422-0.01953-0.2227 0.4688 0.03906 1.535 0.05859 2.48 0.05859 0.918 0 1.984-0.01953 2.477-0.05859 0.08203-0.01953 0.125 0.1836-0.01953 0.2227-0.4297 0.1055-1.004 0.125-1.23 0.2461-0.1445 0.08203-0.2227 1.395-0.2227 4.227 0 2.848 0.07812 4.035 0.2227 4.117 0.2266 0.1445 0.8008 0.1641 1.23 0.2656 0.1445 0.04297 0.1016 0.2266 0.01953 0.2266-0.4922-0.03906-1.578-0.0625-2.5-0.0625" fill="#2c3792"/><path d="m103.5 38.77c-0.4102 0.1016-0.6758 0.1211-0.9219 0.3281-0.1211 0.08203-0.2461 0.2852-0.2461 1.801 0 0.6562 0.1016 0.8633 0.0625 0.9062-0.2656 0.3281-1.906 1.043-3.773 1.043-3.793 0-5.453-2.254-5.453-4.836 0-2.254 1.805-4.961 5.555-4.961 1.273 0 2.379 0.2266 3.098 0.4492 0.1836 0.0625 0.2656 2.152 0.2656 2.93 0 0.1484-0.2266 0.1484-0.2461 0.0625-0.6367-1.699-1.395-2.992-3.32-2.992-1.824 0-3.055 1.805-3.055 4.203 0 3.281 1.52 4.695 3.281 4.695 1.207 0 1.68-0.5352 1.68-1.129 0-1.496-0.0625-2.09-0.1445-2.172-0.1406-0.125-1.27-0.2266-1.68-0.3281-0.1445-0.04297-0.1211-0.2461-0.01953-0.2266 0.4688 0.03906 1.699 0.0625 2.621 0.0625 0.9258 0 1.848-0.02344 2.316-0.0625 0.1055-0.01953 0.125 0.1836-0.01953 0.2266" fill="#2c3792"/><path d="m115.2 38.77c-0.4102 0.1016-0.6758 0.1211-0.9219 0.3281-0.125 0.08203-0.2461 0.2852-0.2461 1.801 0 0.6562 0.1016 0.8633 0.0625 0.9062-0.2656 0.3281-1.906 1.043-3.773 1.043-3.793 0-5.453-2.254-5.453-4.836 0-2.254 1.805-4.961 5.555-4.961 1.273 0 2.379 0.2266 3.098 0.4492 0.1836 0.0625 0.2656 2.152 0.2656 2.93 0 0.1484-0.2266 0.1484-0.2461 0.0625-0.6367-1.699-1.395-2.992-3.32-2.992-1.824 0-3.055 1.805-3.055 4.203 0 3.281 1.516 4.695 3.281 4.695 1.207 0 1.68-0.5352 1.68-1.129 0-1.496-0.0625-2.09-0.1445-2.172-0.1445-0.125-1.27-0.2266-1.68-0.3281-0.1445-0.04297-0.125-0.2461-0.01953-0.2266 0.4688 0.03906 1.699 0.0625 2.621 0.0625 0.9258 0 1.848-0.02344 2.316-0.0625 0.1055-0.01953 0.125 0.1836-0.01953 0.2266" fill="#2c3792"/><path d="m121.7 33.5c-1.578 0-2.828 1.191-2.828 4.348 0 2.461 1.105 4.551 3.156 4.551 1.742 0 2.785-1.438 2.785-4.43 0-2.91-1.516-4.469-3.113-4.469m0.01953 9.348c-3.566 0-5.145-2.336-5.145-5.043 0-2.254 1.949-4.754 5.352-4.754 3.238 0 5.184 2.09 5.184 4.98 0 2.52-2.07 4.816-5.391 4.816" fill="#2c3792"/><path d="m137.7 37.87c-0.4102 0-0.5508 0-0.7578 0.03906-0.125 0.01953-0.1445 0.125-0.1445 0.2461 0 2.441 0 3.527 0.2266 3.73 0.2461 0.2266 0.6562 0.2891 1.332 0.2891 1.004 0 1.742-0.7383 1.742-2.051 0-1.539-1.004-2.254-2.398-2.254m0.1641-4.18c-0.2656 0-0.6367 0.03906-0.8203 0.1406-0.1445 0.08203-0.2461 1.395-0.2461 3.359 0 0.125 0.01953 0.207 0.1445 0.25 0.1445 0.01953 0.2266 0.03906 0.7383 0.03906 1.004 0 1.844-0.4922 1.844-1.945 0-1.254-0.7148-1.844-1.66-1.844m0.8828 8.914c-0.5117 0-1.496-0.0625-2.727-0.0625-0.9219 0-2.195 0.02344-2.664 0.0625-0.08203 0-0.125-0.1836 0.01953-0.2266 0.4297-0.1016 0.8789-0.08203 1.109-0.2227 0.1406-0.08203 0.2422-1.375 0.2422-4.227 0-2.824-0.1016-4.117-0.2422-4.199-0.2305-0.125-0.6797-0.1016-1.109-0.207-0.1445-0.03906-0.1016-0.2422-0.01953-0.2227 0.4688 0.03906 1.637 0.05859 2.562 0.05859 0.6758 0 1.844-0.05859 2.539-0.05859 1.867 0 3.137 0.9414 3.137 2.129 0 0.9648-0.6133 1.805-2.375 2.09-0.08594 0.02344-0.1055 0.125 0 0.125 1.844 0.1641 3.051 0.9414 3.051 2.359 0 1.719-1.578 2.602-3.523 2.602" fill="#2c3792"/><path d="m148.4 33.75c-0.2695 0-0.6758 0.04297-0.7383 0.1016-0.1016 0.1055-0.2266 0.6797-0.2266 4 0 0.1211 0.01953 0.2031 0.1445 0.2266 0.05859 0.03906 0.6133 0.05859 0.8828 0.05859 1.062 0 1.945-0.7578 1.945-2.109 0-1.293-0.7188-2.277-2.008-2.277m4.324 8.793c-0.7773 0-1.125 0.08203-1.414 0.08203-0.207 0-0.4727-0.2852-0.9453-1.066-0.6562-1.086-1.309-2.109-1.598-2.559-0.2461-0.3906-0.4297-0.4727-0.7383-0.4727-0.1016 0-0.4492 0.01953-0.4922 0.05859-0.03906 0.04297-0.08203 0.125-0.08203 0.207 0 2.152 0.08203 3.301 0.2266 3.363 0.2266 0.1445 0.5938 0.1211 1.023 0.2227 0.1445 0.04297 0.1055 0.2266 0.02344 0.2266-0.4922-0.03906-1.395-0.0625-2.316-0.0625-0.9453 0-1.887 0.02344-2.359 0.0625-0.08203 0-0.1211-0.1836 0.02344-0.2266 0.4297-0.1016 0.8789-0.07812 1.105-0.2227 0.1445-0.08203 0.2266-1.539 0.2266-4.387 0-2.832-0.08203-3.957-0.2266-4.039-0.2266-0.125-0.6758-0.1016-1.105-0.207-0.1445-0.03906-0.1055-0.2422-0.02344-0.2227 0.4727 0.03906 1.805 0.05859 2.727 0.05859 0.9453 0 1.641-0.03906 2.316-0.03906 2.336 0 3.422 1.168 3.422 2.398 0 1.148-0.7969 2.027-2.129 2.398-0.0625 0.01953-0.08203 0.0625-0.02344 0.1211 0.2461 0.2891 0.8633 1.148 1.336 1.887 0.6328 1.004 1.25 1.785 1.637 1.988 0.2461 0.1211 0.5742 0.2266 0.7812 0.2461 0.1016 0.01953 0.08203 0.2461 0 0.2266-0.3281-0.04297-0.8828-0.04297-1.395-0.04297" fill="#2c3792"/><path d="m165.2 33.52c-0.4297 0.1445-0.9648 0.1641-1.211 0.3516-0.2852 0.2227-0.3477 1.883-0.3477 4.672 0 2.273-0.5742 4.324-3.914 4.324-2.504 0-3.957-1.371-3.957-3.688 0-4.328 0-5.371-0.1445-5.453-0.2266-0.125-0.5938-0.1016-1.023-0.207-0.1445-0.03906-0.1055-0.2422-0.02344-0.2227 0.4727 0.03906 1.312 0.05859 2.234 0.05859 0.9453 0 1.93-0.01953 2.422-0.05859 0.08203-0.01953 0.1211 0.1836-0.01953 0.2227-0.4336 0.1055-0.9883 0.08203-1.211 0.207-0.1641 0.1016-0.1836 1.207-0.1836 5.266 0 2.113 0.9219 2.953 2.766 2.953 2.133 0 2.5-1.906 2.5-3.586 0-1.906-0.03906-4.285-0.2852-4.488-0.2891-0.2461-0.9023-0.2266-1.25-0.3516-0.1445-0.03906-0.125-0.2422-0.04297-0.2227 0.4922 0.03906 1.066 0.05859 2.008 0.05859 0.7383 0 1.211-0.01953 1.703-0.05859 0.08203 0 0.1211 0.1836-0.01953 0.2227" fill="#2c3792"/><path d="m177.4 33.52c-0.4297 0.1055-0.9219 0.207-1.148 0.3281-0.3086 0.1641-0.4688 0.4336-0.4688 3.73 0 2.094 0.01953 3.977 0.1211 5.207 0 0.125-0.4102 0.125-0.4727 0.0625-1.539-1.785-4.918-5.289-6.617-7.051-0.06641-0.0625-0.1445-0.0625-0.1445 0.01953-0.04297 0.6367-0.08203 1.293-0.08203 2.379 0 3.055 0.1602 3.711 0.3047 3.812 0.2266 0.1641 0.7812 0.2656 1.191 0.3672 0.1406 0.04297 0.1211 0.2266 0.04297 0.2266-0.4961-0.03906-1.09-0.0625-2.012-0.0625-0.9414 0-1.332 0.02344-1.824 0.0625-0.08203 0-0.125-0.1836 0.01953-0.2266 0.4297-0.1016 0.8633-0.1445 1.129-0.3047 0.4727-0.2695 0.5938-0.9023 0.5938-4.082 0-1.945 0-3.113-0.3906-3.668-0.3242-0.4297-0.7773-0.7188-1.332-0.7773-0.1445-0.02344-0.1211-0.2266-0.01953-0.2266 0.3672 0.01953 0.8398 0.0625 1.539 0.0625 0.6328 0 1.332-0.02344 1.473-0.0625 0.04297-0.01953 0.168 0.0625 0.1875 0.1016 1.207 1.621 4.527 5.043 5.512 6.172 0.0625 0.05859 0.1641 0.05859 0.1641 0 0.01953-0.3711 0.03906-1.355 0.03906-2.215 0-3.074-0.1602-3.219-0.4492-3.504-0.1836-0.1875-0.6953-0.2461-1.125-0.3516-0.1445-0.03906-0.1055-0.2422-0.02344-0.2227 0.4922 0.03906 1.129 0.05859 2.051 0.05859 0.9414 0 1.27-0.01953 1.762-0.05859 0.08594-0.01953 0.125 0.1836-0.01953 0.2227" fill="#2c3792"/><path d="m101.9 48.61c-0.4297 0-0.6562 0.05859-0.7188 0.1445-0.03906 0.05859-0.1406 2.027-0.1406 4.305 0 0.1211 0 0.2227 0.1016 0.2422 0.207 0.04297 0.3711 0.0625 0.8633 0.0625 1.227 0 2.066-0.9219 2.066-2.273 0-1.414-0.7344-2.48-2.172-2.48m0.3711 5.246c-0.4922 0-0.9219-0.03906-1.211-0.0625 0 1.848 0.1016 3.156 0.2461 3.219 0.2266 0.1445 0.6758 0.125 1.109 0.2266 0.1406 0.03906 0.1211 0.2266 0.01953 0.2266-0.4727-0.04297-1.477-0.0625-2.398-0.0625-0.9453 0-1.887 0.01953-2.359 0.0625-0.08203 0-0.1211-0.1875 0.01953-0.2266 0.4336-0.1016 0.8828-0.08203 1.109-0.2266 0.1445-0.08203 0.2266-1.371 0.2266-4.223 0-2.828-0.08203-4.121-0.2266-4.203-0.2266-0.1211-0.6758-0.1016-1.109-0.2031-0.1406-0.04297-0.1016-0.2461-0.01953-0.2266 0.4727 0.04297 1.805 0.0625 2.727 0.0625 0.9453 0 1.332-0.04297 2.07-0.04297 2.316 0 3.73 1.168 3.73 2.77 0 1.555-1.188 2.91-3.934 2.91" fill="#2c3792"/><path d="m112.2 48.61c-0.2656 0-0.6758 0.03906-0.7383 0.1016-0.1016 0.1016-0.2227 0.6758-0.2227 3.996 0 0.125 0.01953 0.207 0.1406 0.2266 0.0625 0.03906 0.6172 0.0625 0.8828 0.0625 1.066 0 1.949-0.7617 1.949-2.113 0-1.289-0.7188-2.273-2.012-2.273m4.324 8.793c-0.7773 0-1.125 0.08203-1.414 0.08203-0.2031 0-0.4727-0.2891-0.9414-1.066-0.6562-1.086-1.312-2.109-1.602-2.562-0.2422-0.3906-0.4297-0.4727-0.7344-0.4727-0.1016 0-0.4531 0.01953-0.4922 0.0625-0.04297 0.04297-0.08203 0.125-0.08203 0.207 0 2.148 0.08203 3.297 0.2266 3.359 0.2227 0.1445 0.5938 0.125 1.023 0.2266 0.1445 0.03906 0.1016 0.2266 0.01953 0.2266-0.4922-0.04297-1.395-0.0625-2.316-0.0625-0.9414 0-1.887 0.01953-2.355 0.0625-0.08203 0-0.125-0.1875 0.01953-0.2266 0.4297-0.1016 0.8828-0.08203 1.105-0.2266 0.1445-0.08203 0.2266-1.535 0.2266-4.387 0-2.828-0.08203-3.957-0.2266-4.039-0.2227-0.1211-0.6758-0.1016-1.105-0.2031-0.1445-0.04297-0.1016-0.2461-0.01953-0.2266 0.4688 0.04297 1.805 0.0625 2.727 0.0625 0.9414 0 1.637-0.04297 2.316-0.04297 2.336 0 3.422 1.168 3.422 2.402 0 1.148-0.8008 2.027-2.133 2.395-0.0625 0.02344-0.08203 0.0625-0.01953 0.125 0.2461 0.2852 0.8594 1.148 1.332 1.887 0.6367 1.004 1.25 1.781 1.641 1.988 0.2461 0.1211 0.5742 0.2227 0.7773 0.2461 0.1055 0.01953 0.08203 0.2461 0 0.2227-0.3281-0.03906-0.8789-0.03906-1.395-0.03906" fill="#2c3792"/><path d="m121.3 57.41c-0.9414 0-1.988 0.01953-2.457 0.0625-0.1055 0-0.125-0.1836 0.01953-0.2266 0.4102-0.1055 0.9844-0.125 1.207-0.2656 0.1445-0.08203 0.2266-1.273 0.2266-4.121 0-2.828-0.08203-4.141-0.2266-4.223-0.2227-0.125-0.7969-0.1445-1.207-0.2461-0.1445-0.03906-0.125-0.2461-0.01953-0.2266 0.4688 0.04297 1.535 0.0625 2.48 0.0625 0.9219 0 1.988-0.01953 2.48-0.0625 0.08203-0.01953 0.1211 0.1875-0.02344 0.2266-0.4297 0.1016-1.004 0.1211-1.227 0.2461-0.1445 0.08203-0.2266 1.395-0.2266 4.223 0 2.848 0.08203 4.039 0.2266 4.121 0.2227 0.1406 0.7969 0.1602 1.227 0.2656 0.1445 0.04297 0.1055 0.2266 0.02344 0.2266-0.4922-0.04297-1.582-0.0625-2.504-0.0625" fill="#2c3792"/><path d="m128.8 57.69c-0.9648 0-2.031-0.1836-2.832-0.6133-0.1602-0.08203-0.01953-1.824-0.1211-2.789-0.01953-0.1211 0.1836-0.1211 0.2031-0.03906 0.4727 1.781 1.848 3.035 3.055 3.035 0.8203 0 1.559-0.6562 1.559-1.559 0-2.48-4.449-1.969-4.449-5.066 0-1.555 1.5-2.746 3.262-2.746 0.9219 0 1.578 0.125 2.152 0.3711 0.1836 0.08203 0.03906 1.617 0.08203 2.234 0.01953 0.1406-0.1836 0.1406-0.207 0.05859-0.6328-1.578-1.496-2.23-2.293-2.23-0.8008 0-1.355 0.6133-1.355 1.391 0 2.133 4.531 1.93 4.531 5.207 0 1.273-1.23 2.746-3.586 2.746" fill="#2c3792"/><path d="m142.3 57.47c-1.008-0.04297-0.8633-0.0625-2.914-0.0625-1.844 0-4.609 0.01953-5.082 0.0625-0.1016 0-0.1211-0.1875 0.01953-0.2266 0.4102-0.1016 0.8828-0.08203 1.109-0.2266 0.1445-0.08203 0.2227-1.312 0.2227-4.16 0-2.828-0.07813-4.18-0.2227-4.266-0.2266-0.1211-0.6992-0.1016-1.109-0.2031-0.1406-0.03906-0.1211-0.2461-0.01953-0.2266 0.4727 0.04297 2.891 0.0625 4.734 0.0625 2.051 0 2.543-0.0625 2.891-0.0625 0.1016 0.04297 0.1016 1.906 0.1641 2.582 0 0.125-0.2461 0.125-0.2656 0.0625-0.1836-0.7578-0.5742-1.27-1.027-1.617-0.4492-0.3516-0.9609-0.5352-1.574-0.5352-0.7617 0-1.109 0.0625-1.312 0.1641-0.1445 0.08203-0.25 1.355-0.25 3.156 0 0.2266 0.04297 0.3281 0.1445 0.4102 0.08203 0.0625 0.1875 0.0625 0.7383 0.0625 0.4531 0 0.8203-0.08203 1.066-0.2695 0.3086-0.2422 0.4922-0.5898 0.5742-1.062 0.01953-0.1445 0.2461-0.1016 0.2461-0.01953-0.04297 0.4922-0.0625 0.9219-0.0625 1.555 0 0.5977 0.01953 1.086 0.0625 1.582 0 0.08203-0.207 0.1211-0.2461-0.02344-0.1445-0.4727-0.3672-0.8789-0.6758-1.086-0.2461-0.1641-0.6133-0.2461-0.9648-0.2461-0.5742 0-0.6953 0-0.7578 0.0625-0.08203 0.0625-0.125 0.1836-0.125 0.4102 0 2.152 0.1055 3.383 0.25 3.441 0.2031 0.125 0.8398 0.1875 1.598 0.1875 0.7383 0 1.312-0.1445 1.742-0.5742 0.4492-0.4102 0.7969-1.086 1.066-2.09 0.03906-0.08203 0.3086-0.0625 0.2656 0.05859-0.08203 0.3086-0.1836 3.035-0.2852 3.098" fill="#2c3792"/><path d="m155.5 48.39c-0.4336 0.1016-0.9219 0.2031-1.148 0.3281-0.3086 0.1641-0.4727 0.4297-0.4727 3.73 0 2.09 0.01953 3.977 0.1211 5.207 0 0.1211-0.4062 0.1211-0.4688 0.05859-1.539-1.781-4.922-5.285-6.621-7.051-0.0625-0.05859-0.1445-0.05859-0.1445 0.02344-0.03906 0.6328-0.08203 1.289-0.08203 2.375 0 3.055 0.1641 3.711 0.3086 3.812 0.2266 0.1641 0.7773 0.2695 1.188 0.3711 0.1445 0.04297 0.125 0.2266 0.04297 0.2266-0.4922-0.04297-1.086-0.0625-2.012-0.0625-0.9414 0-1.332 0.01953-1.824 0.0625-0.08203 0-0.1211-0.1836 0.02344-0.2266 0.4297-0.1016 0.8594-0.1445 1.125-0.3086 0.4727-0.2656 0.5938-0.9023 0.5938-4.078 0-1.949 0-3.117-0.3867-3.668-0.3281-0.4297-0.7812-0.7188-1.332-0.7812-0.1445-0.01953-0.125-0.2266-0.02344-0.2266 0.3711 0.02344 0.8438 0.0625 1.539 0.0625 0.6367 0 1.332-0.01953 1.477-0.0625 0.03906-0.01953 0.1641 0.0625 0.1836 0.1016 1.207 1.621 4.531 5.047 5.512 6.172 0.0625 0.0625 0.168 0.0625 0.168 0 0.01953-0.3672 0.03906-1.352 0.03906-2.215 0-3.074-0.1641-3.215-0.4492-3.504-0.1875-0.1836-0.6992-0.2461-1.129-0.3477-0.1445-0.03906-0.1016-0.2461-0.01953-0.2266 0.4922 0.04297 1.125 0.0625 2.047 0.0625 0.9453 0 1.273-0.01953 1.766-0.0625 0.08203-0.01953 0.1211 0.1875-0.01953 0.2266" fill="#2c3792"/></svg>
